<svg width="14" height="14" viewBox="0 0 14 14" fill="none" xmlns="http://www.w3.org/2000/svg">
<path d="M0.292169 2.60192C2.21361 4.22918 5.58515 7.09201 6.57609 7.98465C6.70912 8.10512 6.8518 8.16637 6.99992 8.16637C7.14774 8.16637 7.29017 8.1057 7.4229 7.9858C8.41468 7.09228 11.7862 4.22918 13.7077 2.60192C13.8273 2.5008 13.8456 2.32307 13.7487 2.19945C13.5248 1.91379 13.191 1.75 12.8332 1.75H1.16659C0.808856 1.75 0.475017 1.91379 0.251153 2.19948C0.154302 2.32307 0.17254 2.5008 0.292169 2.60192Z" fill="white"/>
<path d="M13.8308 3.4838C13.7274 3.43567 13.6058 3.45246 13.5198 3.52596C11.3889 5.33234 8.66939 7.64776 7.81375 8.41877C7.33351 8.85228 6.66701 8.85228 6.18565 8.41819C5.27362 7.59646 2.21966 5.00023 0.480211 3.52593C0.393613 3.45243 0.271715 3.43622 0.169176 3.48377C0.0660898 3.53165 0 3.63476 0 3.7484V11.0834C0 11.7268 0.523223 12.25 1.16668 12.25H12.8334C13.4768 12.25 14 11.7268 14 11.0834V3.7484C14 3.63476 13.9339 3.53137 13.8308 3.4838Z" fill="white"/>
</svg>
