<svg width="16" height="15" viewBox="0 0 16 15" fill="none" xmlns="http://www.w3.org/2000/svg">
<g clip-path="url(#clip0)">
<path d="M15.996 15V14.9994H16V9.49814C16 6.80689 15.382 4.73376 12.026 4.73376C10.4126 4.73376 9.32997 5.56377 8.88797 6.35064H8.8413V4.98501H5.6593V14.9994H8.97264V10.0406C8.97264 8.73502 9.23664 7.47252 10.9613 7.47252C12.6606 7.47252 12.686 8.96252 12.686 10.1244V15H15.996Z" fill="white"/>
<path d="M0.264038 4.98566H3.58137V15H0.264038V4.98566Z" fill="white"/>
<path d="M1.92133 0C0.860667 0 0 0.806875 0 1.80125C0 2.79563 0.860667 3.61938 1.92133 3.61938C2.982 3.61938 3.84267 2.79563 3.84267 1.80125C3.842 0.806875 2.98133 0 1.92133 0V0Z" fill="white"/>
</g>
<defs>
<clipPath id="clip0">
<rect width="16" height="15" fill="white"/>
</clipPath>
</defs>
</svg>