<svg width="16" height="13" viewBox="0 0 16 13" fill="none" xmlns="http://www.w3.org/2000/svg">
<path d="M15.9231 1.55508C15.331 1.80939 14.7 1.97795 14.0422 2.0598C14.7189 1.66421 15.2354 1.04257 15.4782 0.293286C14.8473 0.661593 14.1507 0.921747 13.4082 1.06693C12.8091 0.442363 11.9553 0.055542 11.0238 0.055542C9.21649 0.055542 7.76151 1.49175 7.76151 3.25241C7.76151 3.50575 7.78341 3.74934 7.83715 3.98123C5.12326 3.85164 2.72185 2.57816 1.10865 0.638209C0.827006 1.11662 0.661804 1.66421 0.661804 2.2537C0.661804 3.36057 1.24399 4.34175 2.1118 4.9098C1.58733 4.90005 1.07282 4.75098 0.636924 4.51616C0.636924 4.5259 0.636924 4.53857 0.636924 4.55123C0.636924 6.10436 1.76846 7.39441 3.25229 7.69159C2.98658 7.76272 2.69697 7.79682 2.39643 7.79682C2.18744 7.79682 1.97645 7.78513 1.77841 7.74226C2.20137 9.00795 3.40157 9.93846 4.82868 9.96867C3.71804 10.8193 2.30785 11.3318 0.781227 11.3318C0.51352 11.3318 0.25676 11.3201 0 11.288C1.44602 12.2009 3.15974 12.7222 5.00781 12.7222C11.0148 12.7222 14.2989 7.85041 14.2989 3.62754C14.2989 3.48626 14.294 3.34985 14.287 3.21441C14.9349 2.76426 15.4792 2.20205 15.9231 1.55508Z" fill="white"/>
</svg>
